{
    "asset" : {
        "generator" : "Khronos glTF Blender I/O v1.6.16",
        "version" : "2.0"
    },
    "scene" : 0,
    "scenes" : [
        {
            "name" : "Scene",
            "nodes" : [
                0
            ]
        }
    ],
    "nodes" : [
        {
            "mesh" : 0,
            "name" : "iphone",
            "rotation" : [
                0.5,
                -0.5,
                -0.5,
                0.4999999701976776
            ]
        }
    ],
    "materials" : [
        {
            "doubleSided" : true,
            "name" : "phone shell",
            "pbrMetallicRoughness" : {
                "baseColorFactor" : [
                    0.2989310026168823,
                    0.2989310026168823,
                    0.2989310026168823,
                    1
                ],
                "metallicFactor" : 0.8935779929161072,
                "roughnessFactor" : 0.02293577790260315
            }
        },
        {
            "doubleSided" : true,
            "name" : "screen border",
            "pbrMetallicRoughness" : {
                "baseColorFactor" : [
                    0,
                    0,
                    0,
                    1
                ],
                "metallicFactor" : 0,
                "roughnessFactor" : 0.5
            }
        },
        {
            "doubleSided" : true,
            "name" : "screen",
            "pbrMetallicRoughness" : {
                "baseColorFactor" : [
                    0.800000011920929,
                    0.800000011920929,
                    0.800000011920929,
                    1
                ],
                "metallicFactor" : 0,
                "roughnessFactor" : 0.5
            }
        }
    ],
    "meshes" : [
        {
            "name" : "Plane",
            "primitives" : [
                {
                    "attributes" : {
                        "POSITION" : 0,
                        "NORMAL" : 1,
                        "TEXCOORD_0" : 2
                    },
                    "indices" : 3,
                    "material" : 0
                },
                {
                    "attributes" : {
                        "POSITION" : 4,
                        "NORMAL" : 5,
                        "TEXCOORD_0" : 6
                    },
                    "indices" : 7,
                    "material" : 1
                },
                {
                    "attributes" : {
                        "POSITION" : 8,
                        "NORMAL" : 9,
                        "TEXCOORD_0" : 10
                    },
                    "indices" : 11,
                    "material" : 2
                }
            ]
        }
    ],
    "accessors" : [
        {
            "bufferView" : 0,
            "componentType" : 5126,
            "count" : 1180,
            "max" : [
                1.0018115043640137,
                0.09369780868291855,
                0.5304664373397827
            ],
            "min" : [
                -1.0018115043640137,
                -0.045171163976192474,
                -0.5304664373397827
            ],
            "type" : "VEC3"
        },
        {
            "bufferView" : 1,
            "componentType" : 5126,
            "count" : 1180,
            "type" : "VEC3"
        },
        {
            "bufferView" : 2,
            "componentType" : 5126,
            "count" : 1180,
            "type" : "VEC2"
        },
        {
            "bufferView" : 3,
            "componentType" : 5123,
            "count" : 3396,
            "type" : "SCALAR"
        },
        {
            "bufferView" : 4,
            "componentType" : 5126,
            "count" : 232,
            "max" : [
                0.9886829257011414,
                0.08936257660388947,
                0.5173531174659729
            ],
            "min" : [
                -0.9886829257011414,
                0.08936257660388947,
                -0.5173531174659729
            ],
            "type" : "VEC3"
        },
        {
            "bufferView" : 5,
            "componentType" : 5126,
            "count" : 232,
            "type" : "VEC3"
        },
        {
            "bufferView" : 6,
            "componentType" : 5126,
            "count" : 232,
            "type" : "VEC2"
        },
        {
            "bufferView" : 7,
            "componentType" : 5123,
            "count" : 420,
            "type" : "SCALAR"
        },
        {
            "bufferView" : 8,
            "componentType" : 5126,
            "count" : 139,
            "max" : [
                0.9764603972434998,
                0.08936257660388947,
                0.5051447749137878
            ],
            "min" : [
                -0.9764603972434998,
                0.08936257660388947,
                -0.5051447749137878
            ],
            "type" : "VEC3"
        },
        {
            "bufferView" : 9,
            "componentType" : 5126,
            "count" : 139,
            "type" : "VEC3"
        },
        {
            "bufferView" : 10,
            "componentType" : 5126,
            "count" : 139,
            "type" : "VEC2"
        },
        {
            "bufferView" : 11,
            "componentType" : 5123,
            "count" : 294,
            "type" : "SCALAR"
        }
    ],
    "bufferViews" : [
        {
            "buffer" : 0,
            "byteLength" : 14160,
            "byteOffset" : 0
        },
        {
            "buffer" : 0,
            "byteLength" : 14160,
            "byteOffset" : 14160
        },
        {
            "buffer" : 0,
            "byteLength" : 9440,
            "byteOffset" : 28320
        },
        {
            "buffer" : 0,
            "byteLength" : 6792,
            "byteOffset" : 37760
        },
        {
            "buffer" : 0,
            "byteLength" : 2784,
            "byteOffset" : 44552
        },
        {
            "buffer" : 0,
            "byteLength" : 2784,
            "byteOffset" : 47336
        },
        {
            "buffer" : 0,
            "byteLength" : 1856,
            "byteOffset" : 50120
        },
        {
            "buffer" : 0,
            "byteLength" : 840,
            "byteOffset" : 51976
        },
        {
            "buffer" : 0,
            "byteLength" : 1668,
            "byteOffset" : 52816
        },
        {
            "buffer" : 0,
            "byteLength" : 1668,
            "byteOffset" : 54484
        },
        {
            "buffer" : 0,
            "byteLength" : 1112,
            "byteOffset" : 56152
        },
        {
            "buffer" : 0,
            "byteLength" : 588,
            "byteOffset" : 57264
        }
    ],
    "buffers" : [
        {
            "byteLength" : 57852,
            "uri" : "data:application/octet-stream;base64,"
        }
    ]
}
