{
    "asset" : {
        "generator" : "Khronos glTF Blender I/O v1.6.16",
        "version" : "2.0"
    },
    "scene" : 0,
    "scenes" : [
        {
            "name" : "Scene",
            "nodes" : [
                4,
                5
            ]
        }
    ],
    "nodes" : [
        {
            "name" : "Bone",
            "rotation" : [
                -0.694488525390625,
                0.13298766314983368,
                -0.13298748433589935,
                0.694488525390625
            ],
            "scale" : [
                0.9999998807907104,
                1,
                0.9999998807907104
            ]
        },
        {
            "name" : "Bone.001",
            "rotation" : [
                0.7071068286895752,
                -7.850462820808426e-17,
                -0.7071068286895752,
                4.679240477566973e-24
            ]
        },
        {
            "mesh" : 0,
            "name" : "Display",
            "skin" : 0
        },
        {
            "mesh" : 1,
            "name" : "Plane.071",
            "skin" : 0
        },
        {
            "children" : [
                2,
                3,
                0,
                1
            ],
            "name" : "Armature",
            "translation" : [
                0.9739999771118164,
                0.04399999976158142,
                0
            ]
        },
        {
            "mesh" : 2,
            "name" : "Dis"
        }
    ],
    "animations" : [
        {
            "channels" : [
                {
                    "sampler" : 0,
                    "target" : {
                        "node" : 0,
                        "path" : "translation"
                    }
                },
                {
                    "sampler" : 1,
                    "target" : {
                        "node" : 0,
                        "path" : "rotation"
                    }
                },
                {
                    "sampler" : 2,
                    "target" : {
                        "node" : 0,
                        "path" : "scale"
                    }
                },
                {
                    "sampler" : 3,
                    "target" : {
                        "node" : 1,
                        "path" : "translation"
                    }
                },
                {
                    "sampler" : 4,
                    "target" : {
                        "node" : 1,
                        "path" : "rotation"
                    }
                },
                {
                    "sampler" : 5,
                    "target" : {
                        "node" : 1,
                        "path" : "scale"
                    }
                }
            ],
            "name" : "Animation ",
            "samplers" : [
                {
                    "input" : 17,
                    "interpolation" : "LINEAR",
                    "output" : 18
                },
                {
                    "input" : 17,
                    "interpolation" : "LINEAR",
                    "output" : 19
                },
                {
                    "input" : 17,
                    "interpolation" : "LINEAR",
                    "output" : 20
                },
                {
                    "input" : 17,
                    "interpolation" : "LINEAR",
                    "output" : 21
                },
                {
                    "input" : 17,
                    "interpolation" : "LINEAR",
                    "output" : 22
                },
                {
                    "input" : 17,
                    "interpolation" : "LINEAR",
                    "output" : 23
                }
            ]
        },
        {
            "channels" : [
                {
                    "sampler" : 0,
                    "target" : {
                        "node" : 0,
                        "path" : "translation"
                    }
                },
                {
                    "sampler" : 1,
                    "target" : {
                        "node" : 0,
                        "path" : "rotation"
                    }
                },
                {
                    "sampler" : 2,
                    "target" : {
                        "node" : 0,
                        "path" : "scale"
                    }
                },
                {
                    "sampler" : 3,
                    "target" : {
                        "node" : 1,
                        "path" : "translation"
                    }
                },
                {
                    "sampler" : 4,
                    "target" : {
                        "node" : 1,
                        "path" : "rotation"
                    }
                },
                {
                    "sampler" : 5,
                    "target" : {
                        "node" : 1,
                        "path" : "scale"
                    }
                }
            ],
            "name" : "closed",
            "samplers" : [
                {
                    "input" : 17,
                    "interpolation" : "LINEAR",
                    "output" : 24
                },
                {
                    "input" : 17,
                    "interpolation" : "LINEAR",
                    "output" : 25
                },
                {
                    "input" : 17,
                    "interpolation" : "LINEAR",
                    "output" : 26
                },
                {
                    "input" : 17,
                    "interpolation" : "LINEAR",
                    "output" : 27
                },
                {
                    "input" : 17,
                    "interpolation" : "LINEAR",
                    "output" : 28
                },
                {
                    "input" : 17,
                    "interpolation" : "LINEAR",
                    "output" : 29
                }
            ]
        },
        {
            "channels" : [
                {
                    "sampler" : 0,
                    "target" : {
                        "node" : 0,
                        "path" : "translation"
                    }
                },
                {
                    "sampler" : 1,
                    "target" : {
                        "node" : 0,
                        "path" : "rotation"
                    }
                },
                {
                    "sampler" : 2,
                    "target" : {
                        "node" : 0,
                        "path" : "scale"
                    }
                },
                {
                    "sampler" : 3,
                    "target" : {
                        "node" : 1,
                        "path" : "translation"
                    }
                },
                {
                    "sampler" : 4,
                    "target" : {
                        "node" : 1,
                        "path" : "rotation"
                    }
                },
                {
                    "sampler" : 5,
                    "target" : {
                        "node" : 1,
                        "path" : "scale"
                    }
                }
            ],
            "name" : "opned",
            "samplers" : [
                {
                    "input" : 17,
                    "interpolation" : "LINEAR",
                    "output" : 30
                },
                {
                    "input" : 17,
                    "interpolation" : "LINEAR",
                    "output" : 31
                },
                {
                    "input" : 17,
                    "interpolation" : "LINEAR",
                    "output" : 32
                },
                {
                    "input" : 17,
                    "interpolation" : "LINEAR",
                    "output" : 33
                },
                {
                    "input" : 17,
                    "interpolation" : "LINEAR",
                    "output" : 34
                },
                {
                    "input" : 17,
                    "interpolation" : "LINEAR",
                    "output" : 35
                }
            ]
        }
    ],
    "materials" : [
        {
            "doubleSided" : true,
            "name" : "Material.001",
            "pbrMetallicRoughness" : {
                "baseColorTexture" : {
                    "index" : 0
                },
                "metallicFactor" : 0,
                "roughnessFactor" : 0.5
            }
        }
    ],
    "meshes" : [
        {
            "name" : "Plane.001",
            "primitives" : [
                {
                    "attributes" : {
                        "POSITION" : 0,
                        "NORMAL" : 1,
                        "TEXCOORD_0" : 2,
                        "JOINTS_0" : 3,
                        "WEIGHTS_0" : 4
                    },
                    "indices" : 5,
                    "material" : 0
                }
            ]
        },
        {
            "name" : "Plane.076",
            "primitives" : [
                {
                    "attributes" : {
                        "POSITION" : 7,
                        "NORMAL" : 8,
                        "TEXCOORD_0" : 9,
                        "JOINTS_0" : 10,
                        "WEIGHTS_0" : 11
                    },
                    "indices" : 12,
                    "material" : 0
                }
            ]
        },
        {
            "name" : "Plane",
            "primitives" : [
                {
                    "attributes" : {
                        "POSITION" : 13,
                        "NORMAL" : 14,
                        "TEXCOORD_0" : 15
                    },
                    "indices" : 16
                }
            ]
        }
    ],
    "textures" : [
        {
            "sampler" : 0,
            "source" : 0
        }
    ],
    "images" : [
        {
            "bufferView" : 6,
            "mimeType" : "image/png",
            "name" : "uv"
        }
    ],
    "skins" : [
        {
            "inverseBindMatrices" : 6,
            "joints" : [
                0,
                1
            ],
            "name" : "Armature"
        }
    ],
    "accessors" : [
        {
            "bufferView" : 0,
            "componentType" : 5126,
            "count" : 12,
            "max" : [
                1.6976146697998047,
                2.005127429962158,
                1.4657384157180786
            ],
            "min" : [
                0.997844934463501,
                0.007462941110134125,
                -1.4657384157180786
            ],
            "type" : "VEC3"
        },
        {
            "bufferView" : 1,
            "componentType" : 5126,
            "count" : 12,
            "type" : "VEC3"
        },
        {
            "bufferView" : 2,
            "componentType" : 5126,
            "count" : 12,
            "type" : "VEC2"
        },
        {
            "bufferView" : 3,
            "componentType" : 5121,
            "count" : 12,
            "type" : "VEC4"
        },
        {
            "bufferView" : 4,
            "componentType" : 5126,
            "count" : 12,
            "type" : "VEC4"
        },
        {
            "bufferView" : 5,
            "componentType" : 5123,
            "count" : 12,
            "type" : "SCALAR"
        },
        {
            "bufferView" : 7,
            "componentType" : 5126,
            "count" : 2,
            "type" : "MAT4"
        },
        {
            "bufferView" : 8,
            "componentType" : 5126,
            "count" : 6281,
            "max" : [
                1.7395870685577393,
                2.005127429962158,
                1.4879884719848633
            ],
            "min" : [
                -1.1174540519714355,
                0,
                -1.4879884719848633
            ],
            "type" : "VEC3"
        },
        {
            "bufferView" : 9,
            "componentType" : 5126,
            "count" : 6281,
            "type" : "VEC3"
        },
        {
            "bufferView" : 10,
            "componentType" : 5126,
            "count" : 6281,
            "type" : "VEC2"
        },
        {
            "bufferView" : 11,
            "componentType" : 5121,
            "count" : 6281,
            "type" : "VEC4"
        },
        {
            "bufferView" : 12,
            "componentType" : 5126,
            "count" : 6281,
            "type" : "VEC4"
        },
        {
            "bufferView" : 13,
            "componentType" : 5123,
            "count" : 17736,
            "type" : "SCALAR"
        },
        {
            "bufferView" : 14,
            "componentType" : 5126,
            "count" : 4,
            "max" : [
                1.6671854257583618,
                1.9834117889404297,
                1.019495964050293
            ],
            "min" : [
                1.0085726976394653,
                0.09496563673019409,
                -0.9805039763450623
            ],
            "type" : "VEC3"
        },
        {
            "bufferView" : 15,
            "componentType" : 5126,
            "count" : 4,
            "type" : "VEC3"
        },
        {
            "bufferView" : 16,
            "componentType" : 5126,
            "count" : 4,
            "type" : "VEC2"
        },
        {
            "bufferView" : 17,
            "componentType" : 5123,
            "count" : 6,
            "type" : "SCALAR"
        },
        {
            "bufferView" : 18,
            "componentType" : 5126,
            "count" : 60,
            "max" : [
                2.5
            ],
            "min" : [
                0.041666666666666664
            ],
            "type" : "SCALAR"
        },
        {
            "bufferView" : 19,
            "componentType" : 5126,
            "count" : 60,
            "type" : "VEC3"
        },
        {
            "bufferView" : 20,
            "componentType" : 5126,
            "count" : 60,
            "type" : "VEC4"
        },
        {
            "bufferView" : 21,
            "componentType" : 5126,
            "count" : 60,
            "type" : "VEC3"
        },
        {
            "bufferView" : 22,
            "componentType" : 5126,
            "count" : 60,
            "type" : "VEC3"
        },
        {
            "bufferView" : 23,
            "componentType" : 5126,
            "count" : 60,
            "type" : "VEC4"
        },
        {
            "bufferView" : 24,
            "componentType" : 5126,
            "count" : 60,
            "type" : "VEC3"
        },
        {
            "bufferView" : 25,
            "componentType" : 5126,
            "count" : 60,
            "type" : "VEC3"
        },
        {
            "bufferView" : 26,
            "componentType" : 5126,
            "count" : 60,
            "type" : "VEC4"
        },
        {
            "bufferView" : 27,
            "componentType" : 5126,
            "count" : 60,
            "type" : "VEC3"
        },
        {
            "bufferView" : 28,
            "componentType" : 5126,
            "count" : 60,
            "type" : "VEC3"
        },
        {
            "bufferView" : 29,
            "componentType" : 5126,
            "count" : 60,
            "type" : "VEC4"
        },
        {
            "bufferView" : 30,
            "componentType" : 5126,
            "count" : 60,
            "type" : "VEC3"
        },
        {
            "bufferView" : 31,
            "componentType" : 5126,
            "count" : 60,
            "type" : "VEC3"
        },
        {
            "bufferView" : 32,
            "componentType" : 5126,
            "count" : 60,
            "type" : "VEC4"
        },
        {
            "bufferView" : 33,
            "componentType" : 5126,
            "count" : 60,
            "type" : "VEC3"
        },
        {
            "bufferView" : 34,
            "componentType" : 5126,
            "count" : 60,
            "type" : "VEC3"
        },
        {
            "bufferView" : 35,
            "componentType" : 5126,
            "count" : 60,
            "type" : "VEC4"
        },
        {
            "bufferView" : 36,
            "componentType" : 5126,
            "count" : 60,
            "type" : "VEC3"
        }
    ],
    "bufferViews" : [
        {
            "buffer" : 0,
            "byteLength" : 144,
            "byteOffset" : 0
        },
        {
            "buffer" : 0,
            "byteLength" : 144,
            "byteOffset" : 144
        },
        {
            "buffer" : 0,
            "byteLength" : 96,
            "byteOffset" : 288
        },
        {
            "buffer" : 0,
            "byteLength" : 48,
            "byteOffset" : 384
        },
        {
            "buffer" : 0,
            "byteLength" : 192,
            "byteOffset" : 432
        },
        {
            "buffer" : 0,
            "byteLength" : 24,
            "byteOffset" : 624
        },
        {
            "buffer" : 0,
            "byteLength" : 1442009,
            "byteOffset" : 648
        },
        {
            "buffer" : 0,
            "byteLength" : 128,
            "byteOffset" : 1442660
        },
        {
            "buffer" : 0,
            "byteLength" : 75372,
            "byteOffset" : 1442788
        },
        {
            "buffer" : 0,
            "byteLength" : 75372,
            "byteOffset" : 1518160
        },
        {
            "buffer" : 0,
            "byteLength" : 50248,
            "byteOffset" : 1593532
        },
        {
            "buffer" : 0,
            "byteLength" : 25124,
            "byteOffset" : 1643780
        },
        {
            "buffer" : 0,
            "byteLength" : 100496,
            "byteOffset" : 1668904
        },
        {
            "buffer" : 0,
            "byteLength" : 35472,
            "byteOffset" : 1769400
        },
        {
            "buffer" : 0,
            "byteLength" : 48,
            "byteOffset" : 1804872
        },
        {
            "buffer" : 0,
            "byteLength" : 48,
            "byteOffset" : 1804920
        },
        {
            "buffer" : 0,
            "byteLength" : 32,
            "byteOffset" : 1804968
        },
        {
            "buffer" : 0,
            "byteLength" : 12,
            "byteOffset" : 1805000
        },
        {
            "buffer" : 0,
            "byteLength" : 240,
            "byteOffset" : 1805012
        },
        {
            "buffer" : 0,
            "byteLength" : 720,
            "byteOffset" : 1805252
        },
        {
            "buffer" : 0,
            "byteLength" : 960,
            "byteOffset" : 1805972
        },
        {
            "buffer" : 0,
            "byteLength" : 720,
            "byteOffset" : 1806932
        },
        {
            "buffer" : 0,
            "byteLength" : 720,
            "byteOffset" : 1807652
        },
        {
            "buffer" : 0,
            "byteLength" : 960,
            "byteOffset" : 1808372
        },
        {
            "buffer" : 0,
            "byteLength" : 720,
            "byteOffset" : 1809332
        },
        {
            "buffer" : 0,
            "byteLength" : 720,
            "byteOffset" : 1810052
        },
        {
            "buffer" : 0,
            "byteLength" : 960,
            "byteOffset" : 1810772
        },
        {
            "buffer" : 0,
            "byteLength" : 720,
            "byteOffset" : 1811732
        },
        {
            "buffer" : 0,
            "byteLength" : 720,
            "byteOffset" : 1812452
        },
        {
            "buffer" : 0,
            "byteLength" : 960,
            "byteOffset" : 1813172
        },
        {
            "buffer" : 0,
            "byteLength" : 720,
            "byteOffset" : 1814132
        },
        {
            "buffer" : 0,
            "byteLength" : 720,
            "byteOffset" : 1814852
        },
        {
            "buffer" : 0,
            "byteLength" : 960,
            "byteOffset" : 1815572
        },
        {
            "buffer" : 0,
            "byteLength" : 720,
            "byteOffset" : 1816532
        },
        {
            "buffer" : 0,
            "byteLength" : 720,
            "byteOffset" : 1817252
        },
        {
            "buffer" : 0,
            "byteLength" : 960,
            "byteOffset" : 1817972
        },
        {
            "buffer" : 0,
            "byteLength" : 720,
            "byteOffset" : 1818932
        }
    ],
    "samplers" : [
        {
            "magFilter" : 9729,
            "minFilter" : 9987
        }
    ],
    "buffers" : [
        {
            "byteLength" : 1819652,
            "uri" : "data:application/octet-stream;base64,"
        }
    ]
}
